<?xml version="1.0" encoding="UTF-8"?>
<svg xmlns="http://www.w3.org/2000/svg" width="1980" height="1440" viewBox="0 0 1980 1440">
<rect width="100%" height="100%" fill="white"/>
<text x="990.00" y="48.00" font-family="DejaVu Sans, sans-serif" font-size="29.70" text-anchor="middle" fill="#111111" font-weight="bold">RR → SP: output bandwidth (full_transitive)</text>
<text x="990.00" y="78.00" font-family="DejaVu Sans, sans-serif" font-size="15.84" text-anchor="middle" fill="#555555" font-weight="normal">start=320  commit=330  drain=939  finish=4429  config=10 inst @ &lt;=1 accepted/cycle</text>
<line x1="405.00" y1="105.00" x2="405.00" y2="670.00" stroke="#e5e7eb" stroke-width="1.00" opacity="1.000"/>
<line x1="803.44" y1="105.00" x2="803.44" y2="670.00" stroke="#e5e7eb" stroke-width="1.00" opacity="1.000"/>
<line x1="1201.88" y1="105.00" x2="1201.88" y2="670.00" stroke="#e5e7eb" stroke-width="1.00" opacity="1.000"/>
<line x1="1600.31" y1="105.00" x2="1600.31" y2="670.00" stroke="#e5e7eb" stroke-width="1.00" opacity="1.000"/>
<line x1="150.00" y1="670.00" x2="1935.00" y2="670.00" stroke="#e5e7eb" stroke-width="1.00" opacity="1.000"/>
<line x1="144.00" y1="670.00" x2="150.00" y2="670.00" stroke="#222222" stroke-width="1.00" opacity="1.000"/>
<text x="138.00" y="676.16" font-family="DejaVu Sans, sans-serif" font-size="17.60" text-anchor="end" fill="#111111" font-weight="normal">0</text>
<line x1="150.00" y1="400.95" x2="1935.00" y2="400.95" stroke="#e5e7eb" stroke-width="1.00" opacity="1.000"/>
<line x1="144.00" y1="400.95" x2="150.00" y2="400.95" stroke="#222222" stroke-width="1.00" opacity="1.000"/>
<text x="138.00" y="407.11" font-family="DejaVu Sans, sans-serif" font-size="17.60" text-anchor="end" fill="#111111" font-weight="normal">0.5</text>
<line x1="150.00" y1="131.90" x2="1935.00" y2="131.90" stroke="#e5e7eb" stroke-width="1.00" opacity="1.000"/>
<line x1="144.00" y1="131.90" x2="150.00" y2="131.90" stroke="#222222" stroke-width="1.00" opacity="1.000"/>
<text x="138.00" y="138.06" font-family="DejaVu Sans, sans-serif" font-size="17.60" text-anchor="end" fill="#111111" font-weight="normal">1</text>
<rect x="150.00" y="105.00" width="1785.00" height="565.00" fill="none" opacity="1.000" stroke="#222222"/>
<rect x="405.00" y="105.00" width="7.97" height="565.00" fill="#1f77b4" opacity="0.080"/>
<rect x="412.97" y="105.00" width="485.30" height="565.00" fill="#9467bd" opacity="0.050"/>
<line x1="405.00" y1="105.00" x2="405.00" y2="670.00" stroke="#1f77b4" stroke-width="2.00" opacity="0.900"/>
<line x1="412.97" y1="105.00" x2="412.97" y2="670.00" stroke="#ff7f0e" stroke-width="2.00" opacity="0.900" stroke-dasharray="8,6"/>
<line x1="898.27" y1="105.00" x2="898.27" y2="670.00" stroke="#9467bd" stroke-width="2.00" opacity="0.900" stroke-dasharray="3,5"/>
<line x1="405.00" y1="765.00" x2="405.00" y2="1330.00" stroke="#e5e7eb" stroke-width="1.00" opacity="1.000"/>
<line x1="405.00" y1="1330.00" x2="405.00" y2="1336.00" stroke="#222222" stroke-width="1.00" opacity="1.000"/>
<text x="405.00" y="1357.60" font-family="DejaVu Sans, sans-serif" font-size="17.60" text-anchor="middle" fill="#111111" font-weight="normal">0</text>
<line x1="803.44" y1="765.00" x2="803.44" y2="1330.00" stroke="#e5e7eb" stroke-width="1.00" opacity="1.000"/>
<line x1="803.44" y1="1330.00" x2="803.44" y2="1336.00" stroke="#222222" stroke-width="1.00" opacity="1.000"/>
<text x="803.44" y="1357.60" font-family="DejaVu Sans, sans-serif" font-size="17.60" text-anchor="middle" fill="#111111" font-weight="normal">500</text>
<line x1="1201.88" y1="765.00" x2="1201.88" y2="1330.00" stroke="#e5e7eb" stroke-width="1.00" opacity="1.000"/>
<line x1="1201.88" y1="1330.00" x2="1201.88" y2="1336.00" stroke="#222222" stroke-width="1.00" opacity="1.000"/>
<text x="1201.88" y="1357.60" font-family="DejaVu Sans, sans-serif" font-size="17.60" text-anchor="middle" fill="#111111" font-weight="normal">1000</text>
<line x1="1600.31" y1="765.00" x2="1600.31" y2="1330.00" stroke="#e5e7eb" stroke-width="1.00" opacity="1.000"/>
<line x1="1600.31" y1="1330.00" x2="1600.31" y2="1336.00" stroke="#222222" stroke-width="1.00" opacity="1.000"/>
<text x="1600.31" y="1357.60" font-family="DejaVu Sans, sans-serif" font-size="17.60" text-anchor="middle" fill="#111111" font-weight="normal">1500</text>
<line x1="150.00" y1="1330.00" x2="1935.00" y2="1330.00" stroke="#e5e7eb" stroke-width="1.00" opacity="1.000"/>
<line x1="144.00" y1="1330.00" x2="150.00" y2="1330.00" stroke="#222222" stroke-width="1.00" opacity="1.000"/>
<text x="138.00" y="1336.16" font-family="DejaVu Sans, sans-serif" font-size="17.60" text-anchor="end" fill="#111111" font-weight="normal">0</text>
<line x1="150.00" y1="1060.95" x2="1935.00" y2="1060.95" stroke="#e5e7eb" stroke-width="1.00" opacity="1.000"/>
<line x1="144.00" y1="1060.95" x2="150.00" y2="1060.95" stroke="#222222" stroke-width="1.00" opacity="1.000"/>
<text x="138.00" y="1067.11" font-family="DejaVu Sans, sans-serif" font-size="17.60" text-anchor="end" fill="#111111" font-weight="normal">0.5</text>
<line x1="150.00" y1="791.90" x2="1935.00" y2="791.90" stroke="#e5e7eb" stroke-width="1.00" opacity="1.000"/>
<line x1="144.00" y1="791.90" x2="150.00" y2="791.90" stroke="#222222" stroke-width="1.00" opacity="1.000"/>
<text x="138.00" y="798.06" font-family="DejaVu Sans, sans-serif" font-size="17.60" text-anchor="end" fill="#111111" font-weight="normal">1</text>
<rect x="150.00" y="765.00" width="1785.00" height="565.00" fill="none" opacity="1.000" stroke="#222222"/>
<rect x="405.00" y="765.00" width="7.97" height="565.00" fill="#1f77b4" opacity="0.080"/>
<rect x="412.97" y="765.00" width="485.30" height="565.00" fill="#9467bd" opacity="0.050"/>
<line x1="405.00" y1="765.00" x2="405.00" y2="1330.00" stroke="#1f77b4" stroke-width="2.00" opacity="0.900"/>
<line x1="412.97" y1="765.00" x2="412.97" y2="1330.00" stroke="#ff7f0e" stroke-width="2.00" opacity="0.900" stroke-dasharray="8,6"/>
<line x1="898.27" y1="765.00" x2="898.27" y2="1330.00" stroke="#9467bd" stroke-width="2.00" opacity="0.900" stroke-dasharray="3,5"/>
<path d="M 175.50 491.34 H 201.00 V 501.98 H 226.50 H 252.00 V 508.02 H 277.50 H 303.00 V 481.88 H 328.50 H 354.00 V 471.76 H 379.50 H 405.00 V 486.34 H 430.50 H 456.00 V 481.61 H 481.50 H 507.00 V 442.20 H 532.50 H 558.00 V 505.13 H 583.50 H 609.00 V 506.57 H 634.50 H 660.00 V 472.55 H 685.50 H 711.00 V 454.81 H 736.50 H 762.00 V 484.77 H 787.50 H 813.00 V 452.19 H 838.50 H 864.00 V 512.62 H 889.50 H 915.00 V 523.13 H 940.50 H 966.00 V 496.98 H 991.50 H 1017.00 V 562.80 H 1042.50 H 1068.00 V 521.55 H 1093.50 H 1119.00 V 492.12 H 1144.50 H 1170.00 V 566.09 H 1195.50 H 1221.00 V 522.47 H 1246.50 H 1272.00 V 557.55 H 1297.50 H 1323.00 V 533.24 H 1348.50 H 1374.00 V 530.62 H 1399.50 H 1425.00 V 515.64 H 1450.50 H 1476.00 V 514.06 H 1501.50 H 1527.00 V 535.61 H 1552.50 H 1578.00 V 536.53 H 1603.50 H 1629.00 V 532.59 H 1654.50 H 1680.00 V 518.27 H 1705.50 H 1731.00 V 532.19 H 1756.50 H 1782.00 V 527.20 H 1807.50 H 1833.00 V 550.98 H 1858.50 H 1884.00 V 610.09 H 1909.50" fill="none" stroke="#1f77b4" stroke-width="3.00" stroke-linejoin="round" stroke-linecap="round" opacity="1.000"/>
<line x1="150.00" y1="131.90" x2="1935.00" y2="131.90" stroke="#666666" stroke-width="1.50" opacity="1.000" stroke-dasharray="3,5"/>
<path d="M 175.50 1217.02 H 201.00 V 1264.97 H 226.50 H 252.00 V 1224.38 H 277.50 H 303.00 V 1263.92 H 328.50 H 354.00 V 1215.71 H 379.50 H 405.00 V 1209.40 H 430.50 H 456.00 V 1244.48 H 481.50 H 507.00 V 1207.96 H 532.50 H 558.00 V 1262.21 H 583.50 H 609.00 V 1227.92 H 634.50 H 660.00 V 1255.38 H 685.50 H 711.00 V 1243.03 H 736.50 H 762.00 V 1214.00 H 787.50 H 813.00 V 1217.28 H 838.50 H 864.00 V 1259.45 H 889.50 H 915.00 V 1183.13 H 940.50 H 966.00 V 1156.98 H 991.50 H 1017.00 V 1222.80 H 1042.50 H 1068.00 V 1181.55 H 1093.50 H 1119.00 V 1152.12 H 1144.50 H 1170.00 V 1226.09 H 1195.50 H 1221.00 V 1182.47 H 1246.50 H 1272.00 V 1217.55 H 1297.50 H 1323.00 V 1193.24 H 1348.50 H 1374.00 V 1222.54 H 1399.50 H 1425.00 V 1330.00 H 1450.50 H 1476.00 V 1330.00 H 1501.50 H 1527.00 V 1330.00 H 1552.50 H 1578.00 V 1330.00 H 1603.50 H 1629.00 V 1330.00 H 1654.50 H 1680.00 V 1330.00 H 1705.50 H 1731.00 V 1330.00 H 1756.50 H 1782.00 V 1330.00 H 1807.50 H 1833.00 V 1330.00 H 1858.50 H 1884.00 V 1330.00 H 1909.50" fill="none" stroke="#1f77b4" stroke-width="3.00" stroke-linejoin="round" stroke-linecap="round" opacity="1.000"/>
<path d="M 175.50 1264.31 H 201.00 V 1227.01 H 226.50 H 252.00 V 1273.64 H 277.50 H 303.00 V 1207.96 H 328.50 H 354.00 V 1246.05 H 379.50 H 405.00 V 1266.94 H 430.50 H 456.00 V 1227.14 H 481.50 H 507.00 V 1224.25 H 532.50 H 558.00 V 1232.92 H 583.50 H 609.00 V 1268.65 H 634.50 H 660.00 V 1207.17 H 685.50 H 711.00 V 1201.78 H 736.50 H 762.00 V 1260.77 H 787.50 H 813.00 V 1224.90 H 838.50 H 864.00 V 1243.16 H 889.50 H 915.00 V 1330.00 H 940.50 H 966.00 V 1330.00 H 991.50 H 1017.00 V 1330.00 H 1042.50 H 1068.00 V 1330.00 H 1093.50 H 1119.00 V 1330.00 H 1144.50 H 1170.00 V 1330.00 H 1195.50 H 1221.00 V 1330.00 H 1246.50 H 1272.00 V 1330.00 H 1297.50 H 1323.00 V 1330.00 H 1348.50 H 1374.00 V 1298.08 H 1399.50 H 1425.00 V 1175.64 H 1450.50 H 1476.00 V 1174.06 H 1501.50 H 1527.00 V 1195.61 H 1552.50 H 1578.00 V 1196.53 H 1603.50 H 1629.00 V 1192.59 H 1654.50 H 1680.00 V 1178.27 H 1705.50 H 1731.00 V 1192.19 H 1756.50 H 1782.00 V 1187.20 H 1807.50 H 1833.00 V 1210.98 H 1858.50 H 1884.00 V 1270.09 H 1909.50" fill="none" stroke="#ff7f0e" stroke-width="3.00" stroke-linejoin="round" stroke-linecap="round" opacity="1.000"/>
<text x="38.00" y="387.50" font-family="DejaVu Sans, sans-serif" font-size="22.00" text-anchor="middle" fill="#111111" font-weight="normal" transform="rotate(-90.0 38.00 387.50)">Aggregate bandwidth / link capacity</text>
<text x="38.00" y="1047.50" font-family="DejaVu Sans, sans-serif" font-size="22.00" text-anchor="middle" fill="#111111" font-weight="normal" transform="rotate(-90.0 38.00 1047.50)">Per-flow bandwidth / link capacity</text>
<text x="1042.50" y="1410.00" font-family="DejaVu Sans, sans-serif" font-size="22.00" text-anchor="middle" fill="#111111" font-weight="normal">Time relative to reconfiguration start (cycles)</text>
<rect x="1665.00" y="123.00" width="219.29" height="72.32" fill="#ffffff" opacity="0.900" stroke="#c7c7c7"/>
<line x1="1679.00" y1="143.44" x2="1717.00" y2="143.44" stroke="#1f77b4" stroke-width="3.00" opacity="1.000"/>
<text x="1727.00" y="147.44" font-family="DejaVu Sans, sans-serif" font-size="17.16" text-anchor="start" fill="#111111" font-weight="normal">Total bandwidth</text>
<line x1="1679.00" y1="170.60" x2="1717.00" y2="170.60" stroke="#666666" stroke-width="3.00" opacity="1.000" stroke-dasharray="3,5"/>
<text x="1727.00" y="174.60" font-family="DejaVu Sans, sans-serif" font-size="17.16" text-anchor="start" fill="#111111" font-weight="normal">Link capacity</text>
<rect x="1695.00" y="783.00" width="170.00" height="72.32" fill="#ffffff" opacity="0.900" stroke="#c7c7c7"/>
<line x1="1709.00" y1="803.44" x2="1747.00" y2="803.44" stroke="#1f77b4" stroke-width="3.00" opacity="1.000"/>
<text x="1757.00" y="807.44" font-family="DejaVu Sans, sans-serif" font-size="17.16" text-anchor="start" fill="#111111" font-weight="normal">A</text>
<line x1="1709.00" y1="830.60" x2="1747.00" y2="830.60" stroke="#ff7f0e" stroke-width="3.00" opacity="1.000"/>
<text x="1757.00" y="834.60" font-family="DejaVu Sans, sans-serif" font-size="17.16" text-anchor="start" fill="#111111" font-weight="normal">B</text>
<text x="412.00" y="127.00" font-family="DejaVu Sans, sans-serif" font-size="15.84" text-anchor="start" fill="#1f77b4" font-weight="bold">start</text>
<text x="419.97" y="152.00" font-family="DejaVu Sans, sans-serif" font-size="15.84" text-anchor="start" fill="#ff7f0e" font-weight="bold">commit accepted</text>
<text x="905.27" y="202.00" font-family="DejaVu Sans, sans-serif" font-size="15.84" text-anchor="start" fill="#9467bd" font-weight="bold">old tree drained</text>
</svg>
