<?xml version="1.0" encoding="utf-8" standalone="no"?>
<!DOCTYPE svg PUBLIC "-//W3C//DTD SVG 1.1//EN"
  "http://www.w3.org/Graphics/SVG/1.1/DTD/svg11.dtd">
<svg xmlns:xlink="http://www.w3.org/1999/xlink" width="774.72pt" height="388.386287pt" viewBox="0 0 774.72 388.386287" xmlns="http://www.w3.org/2000/svg" version="1.1">
 <metadata>
  <rdf:RDF xmlns:dc="http://purl.org/dc/elements/1.1/" xmlns:cc="http://creativecommons.org/ns#" xmlns:rdf="http://www.w3.org/1999/02/22-rdf-syntax-ns#">
   <cc:Work>
    <dc:type rdf:resource="http://purl.org/dc/dcmitype/StillImage"/>
    <dc:date>2026-09-07T03:50:26.344567</dc:date>
    <dc:format>image/svg+xml</dc:format>
    <dc:creator>
     <cc:Agent>
      <dc:title>Matplotlib v3.11.1, https://matplotlib.org/</dc:title>
     </cc:Agent>
    </dc:creator>
   </cc:Work>
  </rdf:RDF>
 </metadata>
 <defs>
  <style type="text/css">*{stroke-linejoin: round; stroke-linecap: butt}</style>
 </defs>
 <g id="figure_1">
  <g id="patch_1">
   <path d="M 0 388.386287 
L 774.72 388.386287 
L 774.72 -0 
L 0 -0 
z
" style="fill: #ffffff"/>
  </g>
  <g id="axes_1">
   <g id="table_1">
    <g id="patch_2">
     <path d="M 97.92 117.020978 
L 178.272 117.020978 
L 178.272 96.620978 
L 97.92 96.620978 
z
" style="fill: #17324d; stroke: #d1d5db; stroke-linejoin: miter"/>
    </g>
    <g id="text_1">
     <text style="font-weight: 700; font-size: 10px; font-family: 'DejaVu Sans'; text-anchor: start; fill: #ffffff" x="105.9552" y="109.419025" transform="rotate(-0 105.9552 109.419025)">Platform</text>
    </g>
    <g id="patch_3">
     <path d="M 178.272 117.020978 
L 365.76 117.020978 
L 365.76 96.620978 
L 178.272 96.620978 
z
" style="fill: #17324d; stroke: #d1d5db; stroke-linejoin: miter"/>
    </g>
    <g id="text_2">
     <text style="font-weight: 700; font-size: 10px; font-family: 'DejaVu Sans'; text-anchor: start; fill: #ffffff" x="197.0208" y="109.418634" transform="rotate(-0 197.0208 109.418634)">Resource</text>
    </g>
    <g id="patch_4">
     <path d="M 365.76 117.020978 
L 466.2 117.020978 
L 466.2 96.620978 
L 365.76 96.620978 
z
" style="fill: #17324d; stroke: #d1d5db; stroke-linejoin: miter"/>
    </g>
    <g id="text_3">
     <text style="font-weight: 700; font-size: 10px; font-family: 'DejaVu Sans'; text-anchor: middle; fill: #ffffff" x="415.98" y="109.419025" transform="rotate(-0 415.98 109.419025)">Ordinary tables</text>
    </g>
    <g id="patch_5">
     <path d="M 466.2 117.020978 
L 566.64 117.020978 
L 566.64 96.620978 
L 466.2 96.620978 
z
" style="fill: #17324d; stroke: #d1d5db; stroke-linejoin: miter"/>
    </g>
    <g id="text_4">
     <text style="font-weight: 700; font-size: 10px; font-family: 'DejaVu Sans'; text-anchor: middle; fill: #ffffff" x="516.42" y="109.419025" transform="rotate(-0 516.42 109.419025)">RIO dynamic</text>
    </g>
    <g id="patch_6">
     <path d="M 566.64 117.020978 
L 667.08 117.020978 
L 667.08 96.620978 
L 566.64 96.620978 
z
" style="fill: #17324d; stroke: #d1d5db; stroke-linejoin: miter"/>
    </g>
    <g id="text_5">
     <text style="font-weight: 700; font-size: 10px; font-family: 'DejaVu Sans'; text-anchor: middle; fill: #ffffff" x="616.86" y="109.419025" transform="rotate(-0 616.86 109.419025)">Difference</text>
    </g>
    <g id="patch_7">
     <path d="M 667.08 117.020978 
L 767.52 117.020978 
L 767.52 96.620978 
L 667.08 96.620978 
z
" style="fill: #17324d; stroke: #d1d5db; stroke-linejoin: miter"/>
    </g>
    <g id="text_6">
     <text style="font-weight: 700; font-size: 10px; font-family: 'DejaVu Sans'; text-anchor: middle; fill: #ffffff" x="717.3" y="109.419025" transform="rotate(-0 717.3 109.419025)">Overhead</text>
    </g>
    <g id="patch_8">
     <path d="M 97.92 137.420978 
L 178.272 137.420978 
L 178.272 117.020978 
L 97.92 117.020978 
z
" style="fill: #ffffff; stroke: #d1d5db; stroke-linejoin: miter"/>
    </g>
    <g id="text_7">
     <text style="font-size: 10px; font-family: 'DejaVu Sans'; text-anchor: start" x="105.9552" y="129.818634" transform="rotate(-0 105.9552 129.818634)">Quartus</text>
    </g>
    <g id="patch_9">
     <path d="M 178.272 137.420978 
L 365.76 137.420978 
L 365.76 117.020978 
L 178.272 117.020978 
z
" style="fill: #ffffff; stroke: #d1d5db; stroke-linejoin: miter"/>
    </g>
    <g id="text_8">
     <text style="font-size: 10px; font-family: 'DejaVu Sans'; text-anchor: start" x="197.0208" y="129.819025" transform="rotate(-0 197.0208 129.819025)">Mapped block-memory bits</text>
    </g>
    <g id="patch_10">
     <path d="M 365.76 137.420978 
L 466.2 137.420978 
L 466.2 117.020978 
L 365.76 117.020978 
z
" style="fill: #ffffff; stroke: #d1d5db; stroke-linejoin: miter"/>
    </g>
    <g id="text_9">
     <text style="font-size: 10px; font-family: 'DejaVu Sans'; text-anchor: end" x="456.156" y="129.818634" transform="rotate(-0 456.156 129.818634)">880,804,632</text>
    </g>
    <g id="patch_11">
     <path d="M 466.2 137.420978 
L 566.64 137.420978 
L 566.64 117.020978 
L 466.2 117.020978 
z
" style="fill: #ffffff; stroke: #d1d5db; stroke-linejoin: miter"/>
    </g>
    <g id="text_10">
     <text style="font-size: 10px; font-family: 'DejaVu Sans'; text-anchor: end" x="556.596" y="129.818634" transform="rotate(-0 556.596 129.818634)">2,516,583,192</text>
    </g>
    <g id="patch_12">
     <path d="M 566.64 137.420978 
L 667.08 137.420978 
L 667.08 117.020978 
L 566.64 117.020978 
z
" style="fill: #ffffff; stroke: #d1d5db; stroke-linejoin: miter"/>
    </g>
    <g id="text_11">
     <text style="font-size: 10px; font-family: 'DejaVu Sans'; text-anchor: end" x="657.036" y="129.818634" transform="rotate(-0 657.036 129.818634)">+1,635,778,560</text>
    </g>
    <g id="patch_13">
     <path d="M 667.08 137.420978 
L 767.52 137.420978 
L 767.52 117.020978 
L 667.08 117.020978 
z
" style="fill: #ffffff; stroke: #d1d5db; stroke-linejoin: miter"/>
    </g>
    <g id="text_12">
     <text style="font-size: 10px; font-family: 'DejaVu Sans'; text-anchor: end" x="757.476" y="129.818634" transform="rotate(-0 757.476 129.818634)">+185.71%</text>
    </g>
    <g id="patch_14">
     <path d="M 97.92 157.820978 
L 178.272 157.820978 
L 178.272 137.420978 
L 97.92 137.420978 
z
" style="fill: #f0f4f8; stroke: #d1d5db; stroke-linejoin: miter"/>
    </g>
    <g id="text_13">
     <text style="font-size: 10px; font-family: 'DejaVu Sans'; text-anchor: start" x="105.9552" y="150.218634" transform="rotate(-0 105.9552 150.218634)">Quartus</text>
    </g>
    <g id="patch_15">
     <path d="M 178.272 157.820978 
L 365.76 157.820978 
L 365.76 137.420978 
L 178.272 137.420978 
z
" style="fill: #f0f4f8; stroke: #d1d5db; stroke-linejoin: miter"/>
    </g>
    <g id="text_14">
     <text style="font-size: 10px; font-family: 'DejaVu Sans'; text-anchor: start" x="197.0208" y="150.219025" transform="rotate(-0 197.0208 150.219025)">Estimated ALMs</text>
    </g>
    <g id="patch_16">
     <path d="M 365.76 157.820978 
L 466.2 157.820978 
L 466.2 137.420978 
L 365.76 137.420978 
z
" style="fill: #f0f4f8; stroke: #d1d5db; stroke-linejoin: miter"/>
    </g>
    <g id="text_15">
     <text style="font-size: 10px; font-family: 'DejaVu Sans'; text-anchor: end" x="456.156" y="150.218634" transform="rotate(-0 456.156 150.218634)">249,166</text>
    </g>
    <g id="patch_17">
     <path d="M 466.2 157.820978 
L 566.64 157.820978 
L 566.64 137.420978 
L 466.2 137.420978 
z
" style="fill: #f0f4f8; stroke: #d1d5db; stroke-linejoin: miter"/>
    </g>
    <g id="text_16">
     <text style="font-size: 10px; font-family: 'DejaVu Sans'; text-anchor: end" x="556.596" y="150.218634" transform="rotate(-0 556.596 150.218634)">526,738</text>
    </g>
    <g id="patch_18">
     <path d="M 566.64 157.820978 
L 667.08 157.820978 
L 667.08 137.420978 
L 566.64 137.420978 
z
" style="fill: #f0f4f8; stroke: #d1d5db; stroke-linejoin: miter"/>
    </g>
    <g id="text_17">
     <text style="font-size: 10px; font-family: 'DejaVu Sans'; text-anchor: end" x="657.036" y="150.218634" transform="rotate(-0 657.036 150.218634)">+277,572</text>
    </g>
    <g id="patch_19">
     <path d="M 667.08 157.820978 
L 767.52 157.820978 
L 767.52 137.420978 
L 667.08 137.420978 
z
" style="fill: #f0f4f8; stroke: #d1d5db; stroke-linejoin: miter"/>
    </g>
    <g id="text_18">
     <text style="font-size: 10px; font-family: 'DejaVu Sans'; text-anchor: end" x="757.476" y="150.218634" transform="rotate(-0 757.476 150.218634)">+111.40%</text>
    </g>
    <g id="patch_20">
     <path d="M 97.92 178.220978 
L 178.272 178.220978 
L 178.272 157.820978 
L 97.92 157.820978 
z
" style="fill: #ffffff; stroke: #d1d5db; stroke-linejoin: miter"/>
    </g>
    <g id="text_19">
     <text style="font-size: 10px; font-family: 'DejaVu Sans'; text-anchor: start" x="105.9552" y="170.618634" transform="rotate(-0 105.9552 170.618634)">Quartus</text>
    </g>
    <g id="patch_21">
     <path d="M 178.272 178.220978 
L 365.76 178.220978 
L 365.76 157.820978 
L 178.272 157.820978 
z
" style="fill: #ffffff; stroke: #d1d5db; stroke-linejoin: miter"/>
    </g>
    <g id="text_20">
     <text style="font-size: 10px; font-family: 'DejaVu Sans'; text-anchor: start" x="197.0208" y="170.619025" transform="rotate(-0 197.0208 170.619025)">Combinational ALUTs</text>
    </g>
    <g id="patch_22">
     <path d="M 365.76 178.220978 
L 466.2 178.220978 
L 466.2 157.820978 
L 365.76 157.820978 
z
" style="fill: #ffffff; stroke: #d1d5db; stroke-linejoin: miter"/>
    </g>
    <g id="text_21">
     <text style="font-size: 10px; font-family: 'DejaVu Sans'; text-anchor: end" x="456.156" y="170.618634" transform="rotate(-0 456.156 170.618634)">257,723</text>
    </g>
    <g id="patch_23">
     <path d="M 466.2 178.220978 
L 566.64 178.220978 
L 566.64 157.820978 
L 466.2 157.820978 
z
" style="fill: #ffffff; stroke: #d1d5db; stroke-linejoin: miter"/>
    </g>
    <g id="text_22">
     <text style="font-size: 10px; font-family: 'DejaVu Sans'; text-anchor: end" x="556.596" y="170.618634" transform="rotate(-0 556.596 170.618634)">665,003</text>
    </g>
    <g id="patch_24">
     <path d="M 566.64 178.220978 
L 667.08 178.220978 
L 667.08 157.820978 
L 566.64 157.820978 
z
" style="fill: #ffffff; stroke: #d1d5db; stroke-linejoin: miter"/>
    </g>
    <g id="text_23">
     <text style="font-size: 10px; font-family: 'DejaVu Sans'; text-anchor: end" x="657.036" y="170.618634" transform="rotate(-0 657.036 170.618634)">+407,280</text>
    </g>
    <g id="patch_25">
     <path d="M 667.08 178.220978 
L 767.52 178.220978 
L 767.52 157.820978 
L 667.08 157.820978 
z
" style="fill: #ffffff; stroke: #d1d5db; stroke-linejoin: miter"/>
    </g>
    <g id="text_24">
     <text style="font-size: 10px; font-family: 'DejaVu Sans'; text-anchor: end" x="757.476" y="170.618634" transform="rotate(-0 757.476 170.618634)">+158.03%</text>
    </g>
    <g id="patch_26">
     <path d="M 97.92 198.620978 
L 178.272 198.620978 
L 178.272 178.220978 
L 97.92 178.220978 
z
" style="fill: #f0f4f8; stroke: #d1d5db; stroke-linejoin: miter"/>
    </g>
    <g id="text_25">
     <text style="font-size: 10px; font-family: 'DejaVu Sans'; text-anchor: start" x="105.9552" y="191.018634" transform="rotate(-0 105.9552 191.018634)">Quartus</text>
    </g>
    <g id="patch_27">
     <path d="M 178.272 198.620978 
L 365.76 198.620978 
L 365.76 178.220978 
L 178.272 178.220978 
z
" style="fill: #f0f4f8; stroke: #d1d5db; stroke-linejoin: miter"/>
    </g>
    <g id="text_26">
     <text style="font-size: 10px; font-family: 'DejaVu Sans'; text-anchor: start" x="197.0208" y="191.019025" transform="rotate(-0 197.0208 191.019025)">Registers / FFs</text>
    </g>
    <g id="patch_28">
     <path d="M 365.76 198.620978 
L 466.2 198.620978 
L 466.2 178.220978 
L 365.76 178.220978 
z
" style="fill: #f0f4f8; stroke: #d1d5db; stroke-linejoin: miter"/>
    </g>
    <g id="text_27">
     <text style="font-size: 10px; font-family: 'DejaVu Sans'; text-anchor: end" x="456.156" y="191.018634" transform="rotate(-0 456.156 191.018634)">145,293</text>
    </g>
    <g id="patch_29">
     <path d="M 466.2 198.620978 
L 566.64 198.620978 
L 566.64 178.220978 
L 466.2 178.220978 
z
" style="fill: #f0f4f8; stroke: #d1d5db; stroke-linejoin: miter"/>
    </g>
    <g id="text_28">
     <text style="font-size: 10px; font-family: 'DejaVu Sans'; text-anchor: end" x="556.596" y="191.018634" transform="rotate(-0 556.596 191.018634)">268,960</text>
    </g>
    <g id="patch_30">
     <path d="M 566.64 198.620978 
L 667.08 198.620978 
L 667.08 178.220978 
L 566.64 178.220978 
z
" style="fill: #f0f4f8; stroke: #d1d5db; stroke-linejoin: miter"/>
    </g>
    <g id="text_29">
     <text style="font-size: 10px; font-family: 'DejaVu Sans'; text-anchor: end" x="657.036" y="191.018634" transform="rotate(-0 657.036 191.018634)">+123,667</text>
    </g>
    <g id="patch_31">
     <path d="M 667.08 198.620978 
L 767.52 198.620978 
L 767.52 178.220978 
L 667.08 178.220978 
z
" style="fill: #f0f4f8; stroke: #d1d5db; stroke-linejoin: miter"/>
    </g>
    <g id="text_30">
     <text style="font-size: 10px; font-family: 'DejaVu Sans'; text-anchor: end" x="757.476" y="191.018634" transform="rotate(-0 757.476 191.018634)">+85.12%</text>
    </g>
    <g id="patch_32">
     <path d="M 97.92 219.020978 
L 178.272 219.020978 
L 178.272 198.620978 
L 97.92 198.620978 
z
" style="fill: #ffffff; stroke: #d1d5db; stroke-linejoin: miter"/>
    </g>
    <g id="text_31">
     <text style="font-size: 10px; font-family: 'DejaVu Sans'; text-anchor: start" x="105.9552" y="211.419025" transform="rotate(-0 105.9552 211.419025)">Vivado</text>
    </g>
    <g id="patch_33">
     <path d="M 178.272 219.020978 
L 365.76 219.020978 
L 365.76 198.620978 
L 178.272 198.620978 
z
" style="fill: #ffffff; stroke: #d1d5db; stroke-linejoin: miter"/>
    </g>
    <g id="text_32">
     <text style="font-size: 10px; font-family: 'DejaVu Sans'; text-anchor: start" x="197.0208" y="211.419025" transform="rotate(-0 197.0208 211.419025)">BRAM36 tile equivalents</text>
    </g>
    <g id="patch_34">
     <path d="M 365.76 219.020978 
L 466.2 219.020978 
L 466.2 198.620978 
L 365.76 198.620978 
z
" style="fill: #ffffff; stroke: #d1d5db; stroke-linejoin: miter"/>
    </g>
    <g id="text_33">
     <text style="font-size: 10px; font-family: 'DejaVu Sans'; text-anchor: end" x="456.156" y="211.418634" transform="rotate(-0 456.156 211.418634)">35,850</text>
    </g>
    <g id="patch_35">
     <path d="M 466.2 219.020978 
L 566.64 219.020978 
L 566.64 198.620978 
L 466.2 198.620978 
z
" style="fill: #ffffff; stroke: #d1d5db; stroke-linejoin: miter"/>
    </g>
    <g id="text_34">
     <text style="font-size: 10px; font-family: 'DejaVu Sans'; text-anchor: end" x="556.596" y="211.418634" transform="rotate(-0 556.596 211.418634)">81,937.5</text>
    </g>
    <g id="patch_36">
     <path d="M 566.64 219.020978 
L 667.08 219.020978 
L 667.08 198.620978 
L 566.64 198.620978 
z
" style="fill: #ffffff; stroke: #d1d5db; stroke-linejoin: miter"/>
    </g>
    <g id="text_35">
     <text style="font-size: 10px; font-family: 'DejaVu Sans'; text-anchor: end" x="657.036" y="211.418634" transform="rotate(-0 657.036 211.418634)">+46,087.5</text>
    </g>
    <g id="patch_37">
     <path d="M 667.08 219.020978 
L 767.52 219.020978 
L 767.52 198.620978 
L 667.08 198.620978 
z
" style="fill: #ffffff; stroke: #d1d5db; stroke-linejoin: miter"/>
    </g>
    <g id="text_36">
     <text style="font-size: 10px; font-family: 'DejaVu Sans'; text-anchor: end" x="757.476" y="211.418634" transform="rotate(-0 757.476 211.418634)">+128.56%</text>
    </g>
    <g id="patch_38">
     <path d="M 97.92 239.420978 
L 178.272 239.420978 
L 178.272 219.020978 
L 97.92 219.020978 
z
" style="fill: #f0f4f8; stroke: #d1d5db; stroke-linejoin: miter"/>
    </g>
    <g id="text_37">
     <text style="font-size: 10px; font-family: 'DejaVu Sans'; text-anchor: start" x="105.9552" y="231.819025" transform="rotate(-0 105.9552 231.819025)">Vivado</text>
    </g>
    <g id="patch_39">
     <path d="M 178.272 239.420978 
L 365.76 239.420978 
L 365.76 219.020978 
L 178.272 219.020978 
z
" style="fill: #f0f4f8; stroke: #d1d5db; stroke-linejoin: miter"/>
    </g>
    <g id="text_38">
     <text style="font-size: 10px; font-family: 'DejaVu Sans'; text-anchor: start" x="197.0208" y="231.819025" transform="rotate(-0 197.0208 231.819025)">Allocated BRAM + URAM bits</text>
    </g>
    <g id="patch_40">
     <path d="M 365.76 239.420978 
L 466.2 239.420978 
L 466.2 219.020978 
L 365.76 219.020978 
z
" style="fill: #f0f4f8; stroke: #d1d5db; stroke-linejoin: miter"/>
    </g>
    <g id="text_39">
     <text style="font-size: 10px; font-family: 'DejaVu Sans'; text-anchor: end" x="456.156" y="231.818634" transform="rotate(-0 456.156 231.818634)">1,321,574,400</text>
    </g>
    <g id="patch_41">
     <path d="M 466.2 239.420978 
L 566.64 239.420978 
L 566.64 219.020978 
L 466.2 219.020978 
z
" style="fill: #f0f4f8; stroke: #d1d5db; stroke-linejoin: miter"/>
    </g>
    <g id="text_40">
     <text style="font-size: 10px; font-family: 'DejaVu Sans'; text-anchor: end" x="556.596" y="231.818634" transform="rotate(-0 556.596 231.818634)">3,020,544,000</text>
    </g>
    <g id="patch_42">
     <path d="M 566.64 239.420978 
L 667.08 239.420978 
L 667.08 219.020978 
L 566.64 219.020978 
z
" style="fill: #f0f4f8; stroke: #d1d5db; stroke-linejoin: miter"/>
    </g>
    <g id="text_41">
     <text style="font-size: 10px; font-family: 'DejaVu Sans'; text-anchor: end" x="657.036" y="231.818634" transform="rotate(-0 657.036 231.818634)">+1,698,969,600</text>
    </g>
    <g id="patch_43">
     <path d="M 667.08 239.420978 
L 767.52 239.420978 
L 767.52 219.020978 
L 667.08 219.020978 
z
" style="fill: #f0f4f8; stroke: #d1d5db; stroke-linejoin: miter"/>
    </g>
    <g id="text_42">
     <text style="font-size: 10px; font-family: 'DejaVu Sans'; text-anchor: end" x="757.476" y="231.818634" transform="rotate(-0 757.476 231.818634)">+128.56%</text>
    </g>
    <g id="patch_44">
     <path d="M 97.92 259.820978 
L 178.272 259.820978 
L 178.272 239.420978 
L 97.92 239.420978 
z
" style="fill: #ffffff; stroke: #d1d5db; stroke-linejoin: miter"/>
    </g>
    <g id="text_43">
     <text style="font-size: 10px; font-family: 'DejaVu Sans'; text-anchor: start" x="105.9552" y="252.219025" transform="rotate(-0 105.9552 252.219025)">Vivado</text>
    </g>
    <g id="patch_45">
     <path d="M 178.272 259.820978 
L 365.76 259.820978 
L 365.76 239.420978 
L 178.272 239.420978 
z
" style="fill: #ffffff; stroke: #d1d5db; stroke-linejoin: miter"/>
    </g>
    <g id="text_44">
     <text style="font-size: 10px; font-family: 'DejaVu Sans'; text-anchor: start" x="197.0208" y="252.218634" transform="rotate(-0 197.0208 252.218634)">CLB LUTs</text>
    </g>
    <g id="patch_46">
     <path d="M 365.76 259.820978 
L 466.2 259.820978 
L 466.2 239.420978 
L 365.76 239.420978 
z
" style="fill: #ffffff; stroke: #d1d5db; stroke-linejoin: miter"/>
    </g>
    <g id="text_45">
     <text style="font-size: 10px; font-family: 'DejaVu Sans'; text-anchor: end" x="456.156" y="252.218634" transform="rotate(-0 456.156 252.218634)">219,107</text>
    </g>
    <g id="patch_47">
     <path d="M 466.2 259.820978 
L 566.64 259.820978 
L 566.64 239.420978 
L 466.2 239.420978 
z
" style="fill: #ffffff; stroke: #d1d5db; stroke-linejoin: miter"/>
    </g>
    <g id="text_46">
     <text style="font-size: 10px; font-family: 'DejaVu Sans'; text-anchor: end" x="556.596" y="252.218634" transform="rotate(-0 556.596 252.218634)">345,710</text>
    </g>
    <g id="patch_48">
     <path d="M 566.64 259.820978 
L 667.08 259.820978 
L 667.08 239.420978 
L 566.64 239.420978 
z
" style="fill: #ffffff; stroke: #d1d5db; stroke-linejoin: miter"/>
    </g>
    <g id="text_47">
     <text style="font-size: 10px; font-family: 'DejaVu Sans'; text-anchor: end" x="657.036" y="252.218634" transform="rotate(-0 657.036 252.218634)">+126,603</text>
    </g>
    <g id="patch_49">
     <path d="M 667.08 259.820978 
L 767.52 259.820978 
L 767.52 239.420978 
L 667.08 239.420978 
z
" style="fill: #ffffff; stroke: #d1d5db; stroke-linejoin: miter"/>
    </g>
    <g id="text_48">
     <text style="font-size: 10px; font-family: 'DejaVu Sans'; text-anchor: end" x="757.476" y="252.218634" transform="rotate(-0 757.476 252.218634)">+57.78%</text>
    </g>
    <g id="patch_50">
     <path d="M 97.92 280.220978 
L 178.272 280.220978 
L 178.272 259.820978 
L 97.92 259.820978 
z
" style="fill: #f0f4f8; stroke: #d1d5db; stroke-linejoin: miter"/>
    </g>
    <g id="text_49">
     <text style="font-size: 10px; font-family: 'DejaVu Sans'; text-anchor: start" x="105.9552" y="272.619025" transform="rotate(-0 105.9552 272.619025)">Vivado</text>
    </g>
    <g id="patch_51">
     <path d="M 178.272 280.220978 
L 365.76 280.220978 
L 365.76 259.820978 
L 178.272 259.820978 
z
" style="fill: #f0f4f8; stroke: #d1d5db; stroke-linejoin: miter"/>
    </g>
    <g id="text_50">
     <text style="font-size: 10px; font-family: 'DejaVu Sans'; text-anchor: start" x="197.0208" y="272.619025" transform="rotate(-0 197.0208 272.619025)">Registers / FFs</text>
    </g>
    <g id="patch_52">
     <path d="M 365.76 280.220978 
L 466.2 280.220978 
L 466.2 259.820978 
L 365.76 259.820978 
z
" style="fill: #f0f4f8; stroke: #d1d5db; stroke-linejoin: miter"/>
    </g>
    <g id="text_51">
     <text style="font-size: 10px; font-family: 'DejaVu Sans'; text-anchor: end" x="456.156" y="272.618634" transform="rotate(-0 456.156 272.618634)">84,909</text>
    </g>
    <g id="patch_53">
     <path d="M 466.2 280.220978 
L 566.64 280.220978 
L 566.64 259.820978 
L 466.2 259.820978 
z
" style="fill: #f0f4f8; stroke: #d1d5db; stroke-linejoin: miter"/>
    </g>
    <g id="text_52">
     <text style="font-size: 10px; font-family: 'DejaVu Sans'; text-anchor: end" x="556.596" y="272.618634" transform="rotate(-0 556.596 272.618634)">76,037</text>
    </g>
    <g id="patch_54">
     <path d="M 566.64 280.220978 
L 667.08 280.220978 
L 667.08 259.820978 
L 566.64 259.820978 
z
" style="fill: #f0f4f8; stroke: #d1d5db; stroke-linejoin: miter"/>
    </g>
    <g id="text_53">
     <text style="font-size: 10px; font-family: 'DejaVu Sans'; text-anchor: end" x="657.036" y="272.618634" transform="rotate(-0 657.036 272.618634)">-8,872</text>
    </g>
    <g id="patch_55">
     <path d="M 667.08 280.220978 
L 767.52 280.220978 
L 767.52 259.820978 
L 667.08 259.820978 
z
" style="fill: #f0f4f8; stroke: #d1d5db; stroke-linejoin: miter"/>
    </g>
    <g id="text_54">
     <text style="font-size: 10px; font-family: 'DejaVu Sans'; text-anchor: end" x="757.476" y="272.618634" transform="rotate(-0 757.476 272.618634)">-10.45%</text>
    </g>
    <g id="patch_56">
     <path d="M 97.92 300.620978 
L 178.272 300.620978 
L 178.272 280.220978 
L 97.92 280.220978 
z
" style="fill: #ffffff; stroke: #d1d5db; stroke-linejoin: miter"/>
    </g>
    <g id="text_55">
     <text style="font-size: 10px; font-family: 'DejaVu Sans'; text-anchor: start" x="105.9552" y="293.019025" transform="rotate(-0 105.9552 293.019025)">Vivado</text>
    </g>
    <g id="patch_57">
     <path d="M 178.272 300.620978 
L 365.76 300.620978 
L 365.76 280.220978 
L 178.272 280.220978 
z
" style="fill: #ffffff; stroke: #d1d5db; stroke-linejoin: miter"/>
    </g>
    <g id="text_56">
     <text style="font-size: 10px; font-family: 'DejaVu Sans'; text-anchor: start" x="197.0208" y="293.019025" transform="rotate(-0 197.0208 293.019025)">URAM288 blocks</text>
    </g>
    <g id="patch_58">
     <path d="M 365.76 300.620978 
L 466.2 300.620978 
L 466.2 280.220978 
L 365.76 280.220978 
z
" style="fill: #ffffff; stroke: #d1d5db; stroke-linejoin: miter"/>
    </g>
    <g id="text_57">
     <text style="font-size: 10px; font-family: 'DejaVu Sans'; text-anchor: end" x="456.156" y="293.018634" transform="rotate(-0 456.156 293.018634)">0</text>
    </g>
    <g id="patch_59">
     <path d="M 466.2 300.620978 
L 566.64 300.620978 
L 566.64 280.220978 
L 466.2 280.220978 
z
" style="fill: #ffffff; stroke: #d1d5db; stroke-linejoin: miter"/>
    </g>
    <g id="text_58">
     <text style="font-size: 10px; font-family: 'DejaVu Sans'; text-anchor: end" x="556.596" y="293.018634" transform="rotate(-0 556.596 293.018634)">0</text>
    </g>
    <g id="patch_60">
     <path d="M 566.64 300.620978 
L 667.08 300.620978 
L 667.08 280.220978 
L 566.64 280.220978 
z
" style="fill: #ffffff; stroke: #d1d5db; stroke-linejoin: miter"/>
    </g>
    <g id="text_59">
     <text style="font-size: 10px; font-family: 'DejaVu Sans'; text-anchor: end" x="657.036" y="293.018634" transform="rotate(-0 657.036 293.018634)">+0</text>
    </g>
    <g id="patch_61">
     <path d="M 667.08 300.620978 
L 767.52 300.620978 
L 767.52 280.220978 
L 667.08 280.220978 
z
" style="fill: #ffffff; stroke: #d1d5db; stroke-linejoin: miter"/>
    </g>
    <g id="text_60">
     <text style="font-size: 10px; font-family: 'DejaVu Sans'; text-anchor: end" x="757.476" y="293.018634" transform="rotate(-0 757.476 293.018634)">N/A</text>
    </g>
   </g>
   <g id="text_61">
    <text style="font-weight: 700; font-size: 12px; font-family: 'DejaVu Sans'" transform="translate(274.78875 17.519297)">RIO dynamic configuration hardware overhead</text>
    <text style="font-weight: 700; font-size: 12px; font-family: 'DejaVu Sans'" transform="translate(308.70375 31.922578)">5 PEs · PIFO excluded · 1,024 vFlows</text>
   </g>
  </g>
  <g id="text_62">
   <text style="font-size: 9px; font-family: 'DejaVu Sans'; text-anchor: start; fill: #555555" x="7.2" y="379.024178" transform="rotate(-0 7.2 379.024178)">Synthesis only. Difference = RIO − ordinary tables; percentages use ordinary tables. Vendor logic units differ.</text>
  </g>
 </g>
</svg>
